<svg width="201" height="226" viewBox="0 0 201 226" fill="none" xmlns="http://www.w3.org/2000/svg">
<circle r="13.5" transform="matrix(1 0 0 -1 123.5 212.5)" fill="#FFE1E8"/>
<path d="M0 104C5.30388e-07 110.067 2.39709 115.888 6.66923 120.196C10.9414 124.504 16.7425 126.949 22.8092 126.999C28.8759 127.05 34.7168 124.701 39.0598 120.465C43.4028 116.228 45.8962 110.448 45.9968 104.382C46.0975 98.3155 43.7973 92.4553 39.5972 88.0773C35.3972 83.6993 29.6374 81.1581 23.5723 81.0071C17.5073 80.8561 11.6282 83.1076 7.21554 87.2713C2.80285 91.4349 0.213944 97.1733 0.0126617 103.237L9.30777 103.545C9.42767 99.9338 10.9697 96.5157 13.5981 94.0357C16.2265 91.5556 19.7283 90.2145 23.3409 90.3045C26.9535 90.3944 30.3843 91.9081 32.886 94.5158C35.3878 97.1235 36.7578 100.614 36.6979 104.227C36.6379 107.841 35.1528 111.284 32.5659 113.807C29.979 116.33 26.4999 117.729 22.8864 117.699C19.2728 117.669 15.8174 116.213 13.2727 113.647C10.728 111.081 9.30023 107.614 9.30023 104L0 104Z" fill="#FFE1E8"/>
<path d="M169.145 126.374C156.678 134.267 141.997 137.925 127.285 136.801C112.573 135.678 98.6163 129.834 87.4931 120.139C76.3699 110.445 68.6743 97.4178 65.5516 82.9971C62.4289 68.5763 64.0461 53.5327 70.1624 40.1051C76.2787 26.6775 86.5672 15.5837 99.4967 8.47473C112.426 1.36578 127.306 -1.37831 141.92 0.650858C156.535 2.68003 170.104 9.37397 180.608 19.7365C191.112 30.099 197.989 43.5761 200.215 58.1621L185.856 60.3543C184.101 48.8613 178.683 38.2421 170.406 30.077C162.13 21.9119 151.438 16.6374 139.923 15.0385C128.407 13.4397 116.683 15.6019 106.495 21.2033C96.3074 26.8048 88.2006 35.5461 83.3813 46.1263C78.562 56.7066 77.2878 68.5601 79.7483 79.9229C82.2088 91.2857 88.2725 101.55 97.037 109.189C105.801 116.828 116.798 121.432 128.391 122.318C139.983 123.203 151.551 120.321 161.374 114.102L169.145 126.374Z" fill="#FDF1F3"/>
<path d="M126.204 30.9113C134.334 29.5217 142.695 30.7942 150.043 34.5396C157.391 38.2849 163.334 44.3028 166.986 51.6977C170.639 59.0926 171.806 67.4692 170.313 75.5807C168.821 83.6923 164.75 91.1053 158.705 96.7164C152.66 102.328 144.966 105.837 136.765 106.722C128.565 107.607 120.299 105.821 113.196 101.63C106.093 97.438 100.533 91.0649 97.3438 83.4587C94.1548 75.8525 93.507 67.4199 95.4968 59.4159L103.377 61.3748C101.809 67.6815 102.319 74.326 104.832 80.3192C107.345 86.3125 111.725 91.3342 117.322 94.637C122.919 97.9398 129.433 99.3472 135.894 98.6496C142.355 97.9521 148.418 95.1869 153.181 90.7656C157.944 86.3443 161.152 80.5033 162.328 74.1118C163.504 67.7203 162.584 61.1201 159.706 55.2933C156.828 49.4665 152.146 44.7247 146.356 41.7736C140.566 38.8225 133.978 37.8198 127.572 38.9148L126.204 30.9113Z" fill="#FFE1E8"/>
</svg>
