<svg width="381" height="536" viewBox="0 0 381 536" fill="none" xmlns="http://www.w3.org/2000/svg">
<path d="M0 406.5C-2.95329e-06 372.718 13.2006 340.274 36.7856 316.088C60.3706 291.903 92.4729 277.89 126.244 277.041C160.015 276.192 192.781 288.572 217.552 311.542C242.323 334.511 257.138 366.251 258.836 399.99C260.535 433.729 248.982 466.796 226.642 492.137C204.303 517.477 172.946 533.086 139.26 535.632C105.574 538.178 72.2274 527.46 46.3329 505.765C20.4385 484.07 4.04672 453.115 0.654538 419.504L32.5655 416.283C35.1175 441.57 47.4496 464.858 66.9308 481.18C86.412 497.502 111.5 505.565 136.843 503.65C162.185 501.734 185.777 489.992 202.583 470.927C219.39 451.862 228.081 426.985 226.804 401.602C225.526 376.219 214.38 352.34 195.744 335.06C177.108 317.779 152.457 308.465 127.05 309.104C101.643 309.743 77.4918 320.285 59.748 338.48C42.0043 356.676 32.0731 381.085 32.0731 406.5L0 406.5Z" fill="#FDF1F3"/>
<path d="M105 275.5C105 258.153 111.779 241.492 123.89 229.072C136.001 216.653 152.486 209.457 169.828 209.021C187.17 208.585 203.996 214.942 216.716 226.738C229.436 238.533 237.044 254.832 237.916 272.157C238.788 289.482 232.855 306.463 221.384 319.476C209.912 332.488 193.81 340.503 176.512 341.811C159.214 343.118 142.09 337.615 128.793 326.474C115.495 315.333 107.078 299.437 105.336 282.178L109.079 281.8C110.722 298.083 118.664 313.08 131.208 323.59C143.753 334.101 159.909 339.293 176.228 338.06C192.548 336.826 207.739 329.265 218.562 316.988C229.385 304.711 234.982 288.691 234.159 272.346C233.336 256.001 226.159 240.624 214.158 229.496C202.157 218.368 186.283 212.37 169.923 212.782C153.562 213.193 138.009 219.982 126.583 231.699C115.157 243.416 108.762 259.134 108.762 275.5L105 275.5Z" fill="#FFE1E8"/>
<circle r="18.5" transform="matrix(1 0 0 -1 362.5 409.5)" fill="#FDF1F3"/>
<circle r="8" transform="matrix(1 0 0 -1 209 8)" fill="#FFE1E8"/>
<circle r="4.5" transform="matrix(1 0 0 -1 238.5 28.5)" fill="#FFE1E8"/>
<circle r="4.5" transform="matrix(1 0 0 -1 189.5 68.5)" fill="#FFE1E8"/>
</svg>
