<svg width="23" height="20" viewBox="0 0 23 20" fill="none" xmlns="http://www.w3.org/2000/svg">
<path d="M19.3125 7.60938V5.64062C19.3125 4.55781 18.4266 3.67188 17.3438 3.67188H14.3906C14.3906 2.03781 13.0716 0.71875 11.4375 0.71875C9.80344 0.71875 8.48438 2.03781 8.48438 3.67188H5.53125C4.44844 3.67188 3.5625 4.55781 3.5625 5.64062V7.60938C1.92844 7.60938 0.609375 8.92844 0.609375 10.5625C0.609375 12.1966 1.92844 13.5156 3.5625 13.5156V17.4531C3.5625 18.5359 4.44844 19.4219 5.53125 19.4219H17.3438C18.4266 19.4219 19.3125 18.5359 19.3125 17.4531V13.5156C20.9466 13.5156 22.2656 12.1966 22.2656 10.5625C22.2656 8.92844 20.9466 7.60938 19.3125 7.60938ZM17.3438 17.4531H5.53125V5.64062H17.3438V17.4531ZM8.48438 11.5469C7.66734 11.5469 7.00781 10.8873 7.00781 10.0703C7.00781 9.25328 7.66734 8.59375 8.48438 8.59375C9.30141 8.59375 9.96094 9.25328 9.96094 10.0703C9.96094 10.8873 9.30141 11.5469 8.48438 11.5469ZM15.8672 10.0703C15.8672 10.8873 15.2077 11.5469 14.3906 11.5469C13.5736 11.5469 12.9141 10.8873 12.9141 10.0703C12.9141 9.25328 13.5736 8.59375 14.3906 8.59375C15.2077 8.59375 15.8672 9.25328 15.8672 10.0703ZM7.5 13.5156H15.375V15.4844H7.5V13.5156Z" fill="#DE1D4C"/>
</svg>
