<svg width="18" height="18" viewBox="0 0 18 18" fill="none" xmlns="http://www.w3.org/2000/svg">
<path d="M4.12812 7.17969H2.60938V12.4953H4.12812V7.17969Z" fill="#DE1D4C"/>
<path d="M8.68281 7.17969H7.16406V12.4953H8.68281V7.17969Z" fill="#DE1D4C"/>
<path d="M15.5156 4.14062L7.92188 0.34375L0.328125 4.14062V5.65937H15.5156V4.14062ZM3.72253 4.14062L7.92188 2.04475L12.1212 4.14062H3.72253Z" fill="#DE1D4C"/>
<path d="M0.328125 14.0156V15.5344H9.74437C9.5849 15.0484 9.50137 14.5396 9.471 14.0156H0.328125Z" fill="#DE1D4C"/>
<path d="M13.2375 8.89588V7.17969H11.7188V9.65525L13.2375 8.89588Z" fill="#DE1D4C"/>
<path d="M13.9984 10.2188L10.9609 11.7375V13.6739C10.9609 15.5875 12.2595 17.3797 13.9984 17.8125C15.7374 17.3797 17.0359 15.5875 17.0359 13.6739V11.7375L13.9984 10.2188ZM13.4517 15.5344L11.9102 13.9928L12.7151 13.1879L13.4517 13.9245L15.2818 12.1172L16.0867 12.9221L13.4517 15.5344Z" fill="#DE1D4C"/>
</svg>
