<svg width="17" height="21" viewBox="0 0 17 21" fill="none" xmlns="http://www.w3.org/2000/svg">
<path d="M14.0078 7H13.0078V5C13.0078 2.24 10.7678 0 8.00781 0C5.24781 0 3.00781 2.24 3.00781 5V7H2.00781C0.907812 7 0.0078125 7.9 0.0078125 9V19C0.0078125 20.1 0.907812 21 2.00781 21H14.0078C15.1078 21 16.0078 20.1 16.0078 19V9C16.0078 7.9 15.1078 7 14.0078 7ZM5.00781 5C5.00781 3.34 6.34781 2 8.00781 2C9.66781 2 11.0078 3.34 11.0078 5V7H5.00781V5ZM14.0078 19H2.00781V9H14.0078V19ZM8.00781 16C9.10781 16 10.0078 15.1 10.0078 14C10.0078 12.9 9.10781 12 8.00781 12C6.90781 12 6.00781 12.9 6.00781 14C6.00781 15.1 6.90781 16 8.00781 16Z" fill="#DE1D4C"/>
</svg>
